<svg xmlns="http://www.w3.org/2000/svg" width="400" height="300" viewBox="0 0 400 300" fill="none">
  <rect width="400" height="300" fill="white"/>
  <rect x="80" y="80" width="240" height="150" rx="8" fill="#F8FAFC" stroke="#E2E8F0" stroke-width="2"/>
  <rect x="90" y="100" width="180" height="12" rx="4" fill="#CBD5E1"/>
  <rect x="90" y="120" width="120" height="12" rx="4" fill="#E2E8F0"/>
  <rect x="90" y="140" width="160" height="12" rx="4" fill="#E2E8F0"/>
  <rect x="90" y="180" width="100" height="12" rx="4" fill="#3B82F6"/>
  <rect x="90" y="200" width="100" height="12" rx="4" fill="#3B82F6"/>
  <rect x="200" y="180" width="80" height="12" rx="4" fill="#93C5FD"/>
  <rect x="200" y="200" width="80" height="12" rx="4" fill="#93C5FD"/>
  <rect x="140" y="40" width="200" height="120" rx="8" fill="#F1F5F9" stroke="#E2E8F0" stroke-width="2" transform="rotate(10 140 40)"/>
  <rect x="160" y="70" width="120" height="12" rx="4" fill="#CBD5E1" transform="rotate(10 160 70)"/>
  <rect x="160" y="90" width="80" height="12" rx="4" fill="#E2E8F0" transform="rotate(10 160 90)"/>
  <rect x="160" y="110" width="100" height="12" rx="4" fill="#E2E8F0" transform="rotate(10 160 110)"/>
  <text x="120" y="270" font-family="Inter, sans-serif" font-size="14" fill="#64748B">
    You Have No Transactions Currently
  </text>
</svg>
